<svg width="21" height="21" viewBox="0 0 21 21" fill="none" xmlns="http://www.w3.org/2000/svg">
<path d="M16.7181 15.4376C16.4581 14.6376 15.7081 14.0476 14.8181 14.0476H13.8181V11.0476C13.8181 10.7824 13.7127 10.528 13.5252 10.3405C13.3377 10.153 13.0833 10.0476 12.8181 10.0476H6.81808V8.04761H8.81808C9.0833 8.04761 9.33766 7.94225 9.5252 7.75472C9.71273 7.56718 9.81808 7.31283 9.81808 7.04761V5.04761H11.8181C12.3485 5.04761 12.8572 4.8369 13.2323 4.46182C13.6074 4.08675 13.8181 3.57804 13.8181 3.04761V2.63761C16.7481 3.81761 18.8181 6.68761 18.8181 10.0476C18.8181 12.1276 18.0181 14.0176 16.7181 15.4376ZM9.81808 17.9776C5.86808 17.4876 2.81808 14.1276 2.81808 10.0476C2.81808 9.42761 2.89808 8.82761 3.02808 8.25761L7.81808 13.0476V14.0476C7.81808 14.578 8.02879 15.0867 8.40387 15.4618C8.77894 15.8369 9.28765 16.0476 9.81808 16.0476M10.8181 0.0476074C9.50486 0.0476074 8.2045 0.306265 6.99125 0.808812C5.77799 1.31136 4.6756 2.04796 3.74701 2.97654C1.87165 4.85191 0.818085 7.39545 0.818085 10.0476C0.818085 12.6998 1.87165 15.2433 3.74701 17.1187C4.6756 18.0473 5.77799 18.7838 6.99125 19.2864C8.2045 19.7889 9.50486 20.0476 10.8181 20.0476C13.4703 20.0476 16.0138 18.994 17.8892 17.1187C19.7645 15.2433 20.8181 12.6998 20.8181 10.0476C20.8181 8.73439 20.5594 7.43403 20.0569 6.22078C19.5543 5.00752 18.8178 3.90513 17.8892 2.97654C16.9606 2.04796 15.8582 1.31136 14.6449 0.808812C13.4317 0.306265 12.1313 0.0476074 10.8181 0.0476074Z" fill="black"/>
</svg>
