<svg width="22" height="20" viewBox="0 0 22 20" fill="none" xmlns="http://www.w3.org/2000/svg">
<path d="M5.7133 1.49122C4.38179 2.80462 4.38179 4.91748 5.7133 6.22136L13.9648 14.2921C14.5285 14.8536 14.5285 15.7673 13.9648 16.3098C13.3913 16.8713 12.468 16.8713 11.8946 16.3098L7.77374 12.2744L8.80396 11.2656L5.37313 7.89641L5.02325 8.23904L3.65286 6.88757C3.27382 6.51639 2.66152 6.51639 2.26304 6.88757L0.90237 8.23904C0.523327 8.62925 0.523327 9.20981 0.90237 9.58099L2.26304 10.9229L1.93259 11.2656L5.37313 14.6252L6.40335 13.6164L10.5242 17.6708C11.8557 18.9556 14.0036 18.9556 15.3352 17.6708C16.6667 16.3574 16.6667 14.2445 15.3352 12.9501L7.08368 4.86989C6.51998 4.30836 6.51998 3.3947 7.08368 2.85221C7.65711 2.29068 8.58042 2.29068 9.15384 2.85221L13.2747 6.88757L12.2445 7.89641L15.6753 11.2656L16.0252 10.9229L17.3956 12.2744C17.7746 12.6456 18.3967 12.6456 18.7854 12.2744L20.1461 10.9229C20.5251 10.5327 20.5251 9.95216 20.1461 9.58099L18.7854 8.23904L19.1159 7.89641L15.6753 4.53678L14.6451 5.54562L10.5242 1.49122C9.19272 0.206377 7.04481 0.206377 5.7133 1.49122ZM1.59242 8.90525L2.96281 7.5633L4.34291 8.90525L2.96281 10.2567M16.7055 10.2567L18.0856 8.90525L19.456 10.2567L18.0856 11.5987L16.7055 10.2567Z" fill="black"/>
</svg>
