<svg width="23" height="13" viewBox="0 0 23 13" fill="none" xmlns="http://www.w3.org/2000/svg">
<path d="M2.81993 8.03959L3.32039 8.10969L7.89454 3.53284C7.71438 2.88186 7.88453 2.14075 8.41502 1.61997C9.19572 0.828788 10.4569 0.828788 11.2376 1.61997C11.7681 2.14075 11.9382 2.88186 11.7581 3.53284L14.3304 6.10669L14.8308 6.03659C15.011 6.03659 15.1812 6.03659 15.3313 6.10669L18.9045 2.53134C18.8345 2.38111 18.8345 2.21086 18.8345 2.03059C18.8345 1.49936 19.0454 0.989888 19.4208 0.614253C19.7963 0.238618 20.3054 0.0275879 20.8363 0.0275879C21.3672 0.0275879 21.8763 0.238618 22.2518 0.614253C22.6272 0.989888 22.8381 1.49936 22.8381 2.03059C22.8381 2.56181 22.6272 3.07129 22.2518 3.44692C21.8763 3.82256 21.3672 4.03359 20.8363 4.03359C20.6561 4.03359 20.486 4.03359 20.3358 3.96348L16.7626 7.53884C16.8327 7.68906 16.8327 7.85932 16.8327 8.03959C16.8327 8.57081 16.6218 9.08029 16.2463 9.45592C15.8709 9.83156 15.3617 10.0426 14.8308 10.0426C14.3 10.0426 13.7908 9.83156 13.4154 9.45592C13.0399 9.08029 12.829 8.57081 12.829 8.03959L12.8991 7.53884L10.3268 4.96498C10.0065 5.03509 9.64613 5.03509 9.32584 4.96498L4.75169 9.54184L4.82175 10.0426C4.82175 10.5738 4.61085 11.0832 4.23543 11.4589C3.86002 11.8346 3.35085 12.0456 2.81993 12.0456C2.28902 12.0456 1.77985 11.8346 1.40443 11.4589C1.02902 11.0832 0.818115 10.5738 0.818115 10.0426C0.818115 9.51136 1.02902 9.00189 1.40443 8.62626C1.77985 8.25061 2.28902 8.03959 2.81993 8.03959Z" fill="black"/>
</svg>
