<svg width="23" height="20" viewBox="0 0 23 20" fill="none" xmlns="http://www.w3.org/2000/svg">
<path d="M8.82536 3.05067C9.88719 3.05067 10.9055 3.47253 11.6563 4.22344C12.4072 4.97435 12.829 5.9928 12.829 7.05475C12.829 8.11671 12.4072 9.13516 11.6563 9.88607C10.9055 10.637 9.88719 11.0588 8.82536 11.0588C7.76352 11.0588 6.74519 10.637 5.99436 9.88607C5.24353 9.13516 4.82172 8.11671 4.82172 7.05475C4.82172 5.9928 5.24353 4.97435 5.99436 4.22344C6.74519 3.47253 7.76352 3.05067 8.82536 3.05067ZM8.82536 13.0609C11.4978 13.0609 16.8326 14.4022 16.8326 17.065V19.067H0.818085V17.065C0.818085 14.4022 6.15293 13.0609 8.82536 13.0609ZM16.5924 3.41104C18.6142 5.61328 18.6142 8.6664 16.5924 10.6885L14.9109 8.99673C15.7516 7.81553 15.7516 6.28397 14.9109 5.10276L16.5924 3.41104ZM19.9054 0.0476074C23.839 4.10174 23.809 10.1679 19.9054 14.0619L18.2739 12.4302C21.0465 9.24699 21.0465 4.70236 18.2739 1.67927L19.9054 0.0476074Z" fill="black"/>
</svg>
